<?xml version="1.0" encoding="UTF-8" standalone="no"?>
<!-- Created with Inkscape (http://www.inkscape.org/) -->

<svg
   width="163.45076mm"
   height="79.237251mm"
   viewBox="0 0 163.45076 79.237252"
   version="1.1"
   id="svg1"
   xml:space="preserve"
   sodipodi:docname="biwin-logo.svg"
   inkscape:version="1.4 (86a8ad7, 2024-10-11)"
   xmlns:inkscape="http://www.inkscape.org/namespaces/inkscape"
   xmlns:sodipodi="http://sodipodi.sourceforge.net/DTD/sodipodi-0.dtd"
   xmlns:xlink="http://www.w3.org/1999/xlink"
   xmlns="http://www.w3.org/2000/svg"
   xmlns:svg="http://www.w3.org/2000/svg"><sodipodi:namedview
     id="namedview1"
     pagecolor="#ffffff"
     bordercolor="#000000"
     borderopacity="0.25"
     inkscape:showpageshadow="2"
     inkscape:pageopacity="0.0"
     inkscape:pagecheckerboard="0"
     inkscape:deskcolor="#d1d1d1"
     inkscape:document-units="mm"
     inkscape:zoom="0.6911995"
     inkscape:cx="260.41685"
     inkscape:cy="126.59153"
     inkscape:window-width="2560"
     inkscape:window-height="1387"
     inkscape:window-x="-8"
     inkscape:window-y="-8"
     inkscape:window-maximized="1"
     inkscape:current-layer="layer2-8" /><defs
     id="defs1"><linearGradient
       id="swatch18"
       inkscape:swatch="solid"><stop
         style="stop-color:#b51b1f;stop-opacity:1;"
         offset="0"
         id="stop18" /></linearGradient><linearGradient
       id="swatch17"
       inkscape:swatch="solid"><stop
         style="stop-color:#d61518;stop-opacity:1;"
         offset="0"
         id="stop17" /></linearGradient><linearGradient
       id="swatch2"
       inkscape:swatch="solid"><stop
         style="stop-color:#881b20;stop-opacity:1;"
         offset="0"
         id="stop2" /></linearGradient><linearGradient
       id="swatch16"
       inkscape:swatch="solid"><stop
         style="stop-color:#000000;stop-opacity:1;"
         offset="0"
         id="stop16" /></linearGradient><linearGradient
       inkscape:collect="always"
       xlink:href="#swatch16"
       id="linearGradient16"
       x1="13.534178"
       y1="26.692404"
       x2="18.296204"
       y2="26.692404"
       gradientUnits="userSpaceOnUse"
       gradientTransform="translate(-0.12704372)" /><linearGradient
       inkscape:collect="always"
       xlink:href="#swatch16"
       id="linearGradient17"
       gradientUnits="userSpaceOnUse"
       x1="13.534178"
       y1="26.692404"
       x2="18.296204"
       y2="26.692404"
       gradientTransform="translate(-0.12704178,7.423766)" /><linearGradient
       inkscape:collect="always"
       xlink:href="#swatch16"
       id="linearGradient18"
       gradientUnits="userSpaceOnUse"
       x1="13.534178"
       y1="26.692404"
       x2="18.296204"
       y2="26.692404"
       gradientTransform="translate(-0.1270431,14.847532)" /><linearGradient
       inkscape:collect="always"
       xlink:href="#swatch16"
       id="linearGradient19"
       gradientUnits="userSpaceOnUse"
       x1="13.534178"
       y1="26.692404"
       x2="18.296204"
       y2="26.692404"
       gradientTransform="translate(-0.1270438,22.271295)" /><linearGradient
       inkscape:collect="always"
       xlink:href="#swatch16"
       id="linearGradient20"
       gradientUnits="userSpaceOnUse"
       x1="13.534178"
       y1="26.692404"
       x2="18.296204"
       y2="26.692404"
       gradientTransform="translate(-0.12704428,29.695064)" /><linearGradient
       inkscape:collect="always"
       xlink:href="#swatch16"
       id="linearGradient21"
       gradientUnits="userSpaceOnUse"
       x1="13.534178"
       y1="26.692404"
       x2="18.296204"
       y2="26.692404"
       gradientTransform="translate(-0.12704496,37.11883)" /></defs><g
     inkscape:groupmode="layer"
     id="layer2"
     inkscape:label="Layer 1"
     transform="matrix(1.5598867,0,0,1.5893996,-48.846386,-37.821398)"><g
       id="g1"
       transform="matrix(0.98853048,0,0,0.96703793,0.92113504,2.5456866)"
       style="fill:#cccccc;fill-opacity:1"><path
         class="st0"
         d="m 138.55248,143.28324 -7.57767,2.02935 -0.43656,2.44475 h 7.21519 z m -18.21127,8.80533 -3.98727,13.09952 h -0.28575 l -0.26723,-13.09952 h -6.81567 l -4.62756,13.09952 h -0.28575 l 0.37306,-13.09952 h -7.067021 l 1.56633,19.18494 h 7.670271 l 4.52173,-12.15496 h 0.24871 l 0.51594,12.15496 h 7.68879 l 7.9031,-19.18494 z m -35.790191,19.18494 h 7.22577 l 3.41842,-19.18494 h -7.22577 z m 41.767121,0 h 7.22577 l 3.41842,-19.18494 h -7.22577 z m 26.85521,-19.45217 c -2.93687,0 -4.52173,1.56633 -5.28637,3.02683 h -0.35719 l 0.49742,-2.7596 h -7.10142 l -3.36285,19.18494 h 7.26016 l 1.86796,-10.64419 c 0.42598,-2.45533 1.2991,-3.36286 2.74108,-3.36286 0.80169,0 1.905,0.56886 1.905,2.13519 0,0.33867 -0.0344,1.06892 -0.12435,1.58486 l -1.78065,10.287 h 7.2443 l 1.76212,-9.96686 c 0.17727,-0.97896 0.4445,-2.49237 0.4445,-3.82587 0.003,-3.47134 -2.27542,-5.65944 -5.70971,-5.65944 z"
         id="path1-8"
         style="fill:#cccccc;fill-opacity:1;stroke-width:0.264583"
         transform="translate(-23.256926,-108.65158)" /><g
         id="g4"
         style="fill:#cccccc;fill-opacity:1"
         transform="matrix(0.26458333,0,0,0.26458333,2.784135,-58.54401)">
		<path
   class="st1"
   d="m 134.45,352.16 -4.33,24.39 c -1.1,6.18 -3.44,12.07 -6.88,17.31 l -13.33,20.29 61.99,-61.99 z"
   id="path2-6"
   style="fill:#cccccc;fill-opacity:1" />
		<path
   class="st1"
   d="m 163.58,457.95 60.04,-60.04 c 0,0 -11.5,13.03 -11.5,25.87 0,10.84 -3.3,19.19 -11.08,25.07 -6.5,4.95 -14.68,7.98 -24.57,8.79 -4.03,0.34 -12.89,0.31 -12.89,0.31 z"
   id="path3-0"
   style="fill:#cccccc;fill-opacity:1" />
		<path
   class="st0"
   d="m 179.03,432.47 c -2.43,2.57 -5.76,3.86 -9.99,3.86 H 149.2 l 3.88,-22.18 h 19.7 c 6.25,0 9.47,2.75 9.67,8.26 0.15,4.14 -0.99,7.49 -3.42,10.06 z m -19.67,-57.74 -35.06,35.06 -8.52,48.16 h 37.77 L 204.9,406.6 c -2.13,-2.12 -4.67,-3.79 -7.64,-4.99 6.19,-1.65 10.99,-4.77 14.4,-9.37 3.42,-4.59 5.01,-9.92 4.79,-15.98 -0.24,-6.7 -3.02,-12.4 -8.33,-17.08 -3.82,-3.31 -8.91,-5.33 -15.24,-6.36 -5.11,-0.74 6.21,-17.82 6.21,-17.82 l -38.92,38.93 h 18.6 c 5.42,0 8.22,2.66 8.42,7.99 0.13,3.58 -0.96,6.59 -3.25,9.02 -2.3,2.43 -5.24,3.65 -8.82,3.65 h -18.6 l 3.66,-20.66"
   id="path4"
   style="fill:#cccccc;fill-opacity:1" />
	</g></g><rect
       style="fill:#ffffff;fill-opacity:0.99215698;stroke-width:0.504105;stroke-linejoin:bevel;stroke-opacity:0.55;opacity:0"
       id="rect1"
       width="104.78374"
       height="49.853573"
       x="31.31406"
       y="23.796028"
       inkscape:label="frame" /><g
       inkscape:groupmode="layer"
       id="layer2-8"
       inkscape:label="swatch"
       transform="matrix(0.64107221,0,0,0.6291684,140.9987,22.014357)"><rect
         style="fill:#f51928;fill-opacity:1;stroke:url(#linearGradient16);stroke-width:0.125;stroke-dasharray:none"
         id="rect16"
         width="4.7620249"
         height="4.7620249"
         x="13.407134"
         y="24.311392" /><rect
         style="fill:#cccccc;fill-opacity:1;stroke:url(#linearGradient17);stroke-width:0.125;stroke-dasharray:none"
         id="rect16-8"
         width="4.7620249"
         height="4.7620249"
         x="13.407134"
         y="31.735157" /><rect
         style="fill:#bc93f9;fill-opacity:0.992157;stroke:url(#linearGradient18);stroke-width:0.125;stroke-dasharray:none"
         id="rect16-5"
         width="4.7620249"
         height="4.7620249"
         x="13.407134"
         y="39.158924" /><rect
         style="fill:#eca089;fill-opacity:1;stroke:url(#linearGradient19);stroke-width:0.125;stroke-dasharray:none"
         id="rect16-3"
         width="4.7620249"
         height="4.7620249"
         x="13.407134"
         y="46.582691" /><rect
         style="fill:#d07a6e;fill-opacity:0.992157;stroke:url(#linearGradient20);stroke-width:0.125;stroke-dasharray:none"
         id="rect16-38"
         width="4.7620249"
         height="4.7620249"
         x="13.407134"
         y="54.006454" /><rect
         style="fill:#7ccaa2;fill-opacity:1;stroke:url(#linearGradient21);stroke-width:0.125;stroke-dasharray:none"
         id="rect16-7"
         width="4.7620249"
         height="4.7620249"
         x="13.407134"
         y="61.430222" /></g></g></svg>
