<?xml version="1.0" encoding="UTF-8" standalone="no"?>
<!-- Created with Inkscape (http://www.inkscape.org/) -->

<svg
   width="76mm"
   height="62.692169mm"
   viewBox="0 0 76 62.69217"
   version="1.1"
   id="svg1"
   xml:space="preserve"
   sodipodi:docname="origincode-logo.svg"
   inkscape:version="1.4 (86a8ad7, 2024-10-11)"
   xmlns:inkscape="http://www.inkscape.org/namespaces/inkscape"
   xmlns:sodipodi="http://sodipodi.sourceforge.net/DTD/sodipodi-0.dtd"
   xmlns:xlink="http://www.w3.org/1999/xlink"
   xmlns="http://www.w3.org/2000/svg"
   xmlns:svg="http://www.w3.org/2000/svg"><sodipodi:namedview
     id="namedview1"
     pagecolor="#ffffff"
     bordercolor="#000000"
     borderopacity="0.25"
     inkscape:showpageshadow="2"
     inkscape:pageopacity="0.0"
     inkscape:pagecheckerboard="0"
     inkscape:deskcolor="#d1d1d1"
     inkscape:document-units="mm"
     inkscape:zoom="1.382399"
     inkscape:cx="-139.61237"
     inkscape:cy="277.41629"
     inkscape:window-width="2560"
     inkscape:window-height="1387"
     inkscape:window-x="-8"
     inkscape:window-y="-8"
     inkscape:window-maximized="1"
     inkscape:current-layer="svg1" /><defs
     id="defs1"><linearGradient
       id="swatch18"
       inkscape:swatch="solid"><stop
         style="stop-color:#b51b1f;stop-opacity:1;"
         offset="0"
         id="stop18" /></linearGradient><linearGradient
       id="swatch17"
       inkscape:swatch="solid"><stop
         style="stop-color:#d61518;stop-opacity:1;"
         offset="0"
         id="stop17" /></linearGradient><linearGradient
       id="swatch2"
       inkscape:swatch="solid"><stop
         style="stop-color:#881b20;stop-opacity:1;"
         offset="0"
         id="stop2" /></linearGradient><linearGradient
       id="swatch16"
       inkscape:swatch="solid"><stop
         style="stop-color:#000000;stop-opacity:1;"
         offset="0"
         id="stop16" /></linearGradient><linearGradient
       inkscape:collect="always"
       xlink:href="#swatch16"
       id="linearGradient16"
       x1="13.534178"
       y1="26.692404"
       x2="18.296204"
       y2="26.692404"
       gradientUnits="userSpaceOnUse"
       gradientTransform="translate(-0.12704372)" /><linearGradient
       inkscape:collect="always"
       xlink:href="#swatch16"
       id="linearGradient17"
       gradientUnits="userSpaceOnUse"
       x1="13.534178"
       y1="26.692404"
       x2="18.296204"
       y2="26.692404"
       gradientTransform="translate(-0.12704178,7.423766)" /><linearGradient
       inkscape:collect="always"
       xlink:href="#swatch16"
       id="linearGradient18"
       gradientUnits="userSpaceOnUse"
       x1="13.534178"
       y1="26.692404"
       x2="18.296204"
       y2="26.692404"
       gradientTransform="translate(-0.1270431,14.847532)" /><linearGradient
       inkscape:collect="always"
       xlink:href="#swatch16"
       id="linearGradient19"
       gradientUnits="userSpaceOnUse"
       x1="13.534178"
       y1="26.692404"
       x2="18.296204"
       y2="26.692404"
       gradientTransform="translate(-0.1270438,22.271295)" /><linearGradient
       inkscape:collect="always"
       xlink:href="#swatch16"
       id="linearGradient20"
       gradientUnits="userSpaceOnUse"
       x1="13.534178"
       y1="26.692404"
       x2="18.296204"
       y2="26.692404"
       gradientTransform="translate(-0.12704428,29.695064)" /><linearGradient
       inkscape:collect="always"
       xlink:href="#swatch16"
       id="linearGradient21"
       gradientUnits="userSpaceOnUse"
       x1="13.534178"
       y1="26.692404"
       x2="18.296204"
       y2="26.692404"
       gradientTransform="translate(-0.12704496,37.11883)" /></defs><g
     inkscape:groupmode="layer"
     id="layer2-8"
     inkscape:label="swatch"
     transform="translate(-52.767553,28.138607)"><rect
       style="fill:#f51928;fill-opacity:1;stroke:url(#linearGradient16);stroke-width:0.125;stroke-dasharray:none"
       id="rect16"
       width="4.7620249"
       height="4.7620249"
       x="13.407134"
       y="24.311392" /><rect
       style="fill:#cccccc;fill-opacity:1;stroke:url(#linearGradient17);stroke-width:0.125;stroke-dasharray:none"
       id="rect16-8"
       width="4.7620249"
       height="4.7620249"
       x="13.407134"
       y="31.735157" /><rect
       style="fill:#bc93f9;fill-opacity:0.992157;stroke:url(#linearGradient18);stroke-width:0.125;stroke-dasharray:none"
       id="rect16-5"
       width="4.7620249"
       height="4.7620249"
       x="13.407134"
       y="39.158924" /><rect
       style="fill:#eca089;fill-opacity:1;stroke:url(#linearGradient19);stroke-width:0.125;stroke-dasharray:none"
       id="rect16-3"
       width="4.7620249"
       height="4.7620249"
       x="13.407134"
       y="46.582691" /><rect
       style="fill:#d07a6e;fill-opacity:0.992157;stroke:url(#linearGradient20);stroke-width:0.125;stroke-dasharray:none"
       id="rect16-38"
       width="4.7620249"
       height="4.7620249"
       x="13.407134"
       y="54.006454" /><rect
       style="fill:#7ccaa2;fill-opacity:1;stroke:url(#linearGradient21);stroke-width:0.125;stroke-dasharray:none"
       id="rect16-7"
       width="4.7620249"
       height="4.7620249"
       x="13.407134"
       y="61.430222" /></g><rect
     style="opacity:0;fill:#ffffff;fill-opacity:0.992157;stroke-width:0.481436;stroke-linejoin:bevel;stroke-opacity:0.55"
     id="rect2"
     width="76"
     height="62.692169"
     x="0"
     y="0"
     inkscape:label="frame" /><g
     id="path6"
     class="st0"
     inkscape:label="group"
     transform="translate(-1.5e-7,-10.718368)"><path
       id="path16"
       style="fill:#cccccc;fill-opacity:1;paint-order:stroke fill markers"
       d="m 49.109191,18.083327 c -1.38723,0 -2.763089,0.113714 -4.116204,0.352489 -0.12506,-0.07959 -0.250163,-0.147838 -0.375223,-0.227429 -4.241282,-2.501558 -9.08521,-3.820563 -14.031477,-3.820563 -7.390969,0 -14.338481,2.876793 -19.569017,8.107326 -5.2305327,5.230532 -8.1073268,12.178044 -8.1073268,19.569017 0,7.390973 2.8767941,14.338485 8.1073268,19.569016 5.230536,5.230538 12.178048,8.107327 19.569017,8.107327 5.116825,0 10.074465,-1.398597 14.41808,-4.047975 1.341744,0.227428 2.717603,0.352488 4.104832,0.352488 13.224154,0 23.980858,-10.756708 23.980858,-23.980861 0,-13.224153 -10.756704,-23.980856 -23.980858,-23.980856 z m 0,44.345827 c -1.648756,0 -3.25203,-0.193305 -4.809819,-0.568537 C 37.113077,60.120894 31.820431,57.206444 29.91015,49.815471 29.762313,49.258305 29.648641,48.689772 29.546272,48.109863 h -3.661373 c 0.125061,0.875545 0.295633,1.751095 0.523052,2.603896 1.921654,7.470569 6.713986,10.703398 13.52505,13.511967 -2.945019,1.23941 -6.106077,1.887543 -9.358107,1.887543 -12.655616,0 -23.0598266,-9.824306 -23.9808574,-22.241137 H 37.715711 c 0.807321,3.183801 3.695487,5.54891 7.129443,5.54891 3.433961,0 6.322126,-2.365109 7.129447,-5.54891 h 6.560909 v -3.627263 h -6.560909 c -0.807321,-3.183806 -3.695486,-5.548915 -7.129447,-5.548915 -3.433956,0 -6.322122,2.365109 -7.129443,5.548915 H 6.5940366 C 7.5264346,27.828038 17.93065,18.003731 30.574894,18.003731 c 4.047979,0 8.027734,1.023366 11.552658,2.956386 0.03395,0.02277 0.07959,0.04547 0.113713,0.05686 l 0.784583,0.443455 v 9.202461 c 0.579905,-0.12506 1.193924,-0.181917 1.807943,-0.181917 0.61402,0 1.228038,0.06821 1.807948,0.181917 v -8.81586 c 0.807321,-0.102326 1.626013,-0.147837 2.444705,-0.147837 11.222907,0 20.36497,9.130691 20.36497,20.364966 0,11.234276 -9.119323,20.364971 -20.342227,20.364971 z m -7.99362,-20.353599 c 0,-2.058101 1.671495,-3.740967 3.740967,-3.740967 2.058103,0 3.740968,1.671494 3.740968,3.740967 0,2.058103 -1.671494,3.740968 -3.740968,3.740968 -2.069472,-0.01117 -3.740967,-1.682865 -3.740967,-3.740968 z M 30.585937,13.498047 c -7.622064,0 -14.805315,2.973288 -20.199218,8.367187 -5.3939,5.393899 -8.3671877,12.577151 -8.3671877,20.199219 0,7.622069 2.9732877,14.805321 8.3671877,20.199219 5.393903,5.393905 12.577154,8.367187 20.199218,8.367187 5.172243,0 10.185285,-1.404093 14.601563,-4.03125 1.284581,0.201532 2.5936,0.335938 3.921875,0.335938 13.707097,0 24.871094,-11.163998 24.871094,-24.871094 0,-13.707095 -11.163998,-24.871094 -24.871094,-24.871094 h -0.613281 l -0.02148,0.05469 c -1.095082,0.02695 -2.185792,0.106916 -3.263672,0.279297 -0.0347,-0.02059 -0.08669,-0.05215 -0.115234,-0.07031 l -0.01172,-0.0078 -0.01367,-0.0078 C 40.691447,14.8587 35.690531,13.498047 30.585937,13.498047 Z m 0,1.78125 c 4.785862,0 9.471796,1.274994 13.574219,3.693359 0.0018,0.0011 0.0041,9.02e-4 0.0059,0.002 0.141932,0.08893 0.263576,0.158138 0.349609,0.212891 l 0.291016,0.185547 0.341796,-0.06055 c 1.299026,-0.22923 2.622377,-0.337891 3.960938,-0.337891 12.741212,0 23.089844,10.348634 23.089844,23.089844 0,12.741211 -10.348633,23.089844 -23.089844,23.089844 -1.333704,0 -2.661153,-0.12019 -3.957031,-0.339844 l -0.328125,-0.05469 -0.283203,0.171875 c -4.20538,2.565061 -9.000538,3.917968 -13.955079,3.917968 -7.159873,0 -13.872284,-2.778532 -18.939453,-7.845703 C 6.5793187,55.936742 3.8007812,49.224331 3.8007813,42.064453 c 0,-7.159877 2.7785374,-13.872288 7.8457027,-18.939453 5.067169,-5.067166 11.77958,-7.845703 18.939453,-7.845703 z m -0.01172,1.833984 c -13.105555,0 -23.9023261,10.189291 -24.8691409,23.064453 l -0.070312,0.957032 H 38.408203 l 0.169922,-0.671875 c 0.708765,-2.795135 3.242544,-4.876954 6.267578,-4.876954 3.02504,0 5.55686,2.081819 6.265625,4.876954 l 0.169922,0.671875 h 6.363281 v 1.847656 H 51.28125 l -0.169922,0.669922 c -0.708765,2.795129 -3.240585,4.878906 -6.265625,4.878906 -3.025034,0 -5.558813,-2.083777 -6.267578,-4.878906 L 38.408203,42.982422 H 5.6347656 l 0.070312,0.955078 c 0.9550665,12.875682 11.7526284,23.066406 24.8691404,23.066406 3.370359,0 6.652369,-0.672299 9.705078,-1.957031 l 1.96875,-0.830078 -1.974609,-0.814453 C 33.54893,60.629467 29.117634,57.67682 27.269531,50.492187 v -0.0039 l -0.002,-0.0039 C 27.138791,50.001435 27.062342,49.497776 26.96875,49 h 1.857422 c 0.07027,0.346826 0.130754,0.69234 0.222656,1.039062 0.997909,3.860958 2.931761,6.645222 5.539063,8.626954 2.607301,1.981731 5.846865,3.17569 9.501953,4.060546 1.625339,0.391504 3.301165,0.59375 5.019531,0.59375 h 1.076172 l -0.01953,-0.107421 c 11.206798,-0.564639 20.175781,-9.794336 20.175781,-21.148438 0,-11.717426 -9.549913,-21.255859 -21.25586,-21.255859 -0.851697,0 -1.707488,0.04667 -2.55664,0.154297 l -0.777344,0.09961 v 8.619141 c -0.307967,-0.02964 -0.602503,-0.0918 -0.917969,-0.0918 -0.307671,0 -0.610671,0.06607 -0.917968,0.09375 v -8.742188 l -1.310547,-0.742187 -0.03516,-0.01172 -0.01367,-0.0078 C 38.900113,18.174498 34.772296,17.113281 30.574219,17.113281 Z m 0,1.78125 c 3.89788,0 7.731679,0.984853 11.125,2.845703 l -0.06836,-0.04102 c 0.113195,0.07592 0.183138,0.113713 0.328125,0.162109 l -0.15625,-0.06836 0.332032,0.1875 v 9.785156 l 1.078125,-0.232422 c 0.507643,-0.109476 1.062052,-0.162109 1.621093,-0.162109 0.548065,0 1.107298,0.06221 1.636719,0.166015 l 1.0625,0.207032 v -9.060547 c 0.515947,-0.0416 1.029599,-0.09375 1.552734,-0.09375 10.739868,0 19.47461,8.723486 19.47461,19.474609 0,10.752327 -8.711308,19.474609 -19.451172,19.474609 -1.578485,0 -3.10996,-0.186257 -4.599609,-0.544921 h -0.002 C 40.977443,60.139328 37.97876,59.005894 35.666016,57.248047 33.35285,55.489879 31.683857,53.121812 30.771484,49.591797 v -0.002 -0.002 C 30.63314,49.066501 30.5239,48.521972 30.423828,47.955078 L 30.292969,47.21875 h -5.435547 l 0.146484,1.017578 c 0.128961,0.902847 0.304108,1.809405 0.541016,2.699219 1.64e-4,6.4e-4 -1.65e-4,0.0013 0,0.002 5.28e-4,0.002 0.0014,0.0039 0.002,0.0059 1.780639,6.911652 6.161147,10.401788 11.958984,13.103516 -2.234554,0.70293 -4.539924,1.175781 -6.93164,1.175781 -11.859623,0 -21.5825531,-8.968301 -22.9277346,-20.458984 H 37.148437 c 1.132565,3.206008 4.11495,5.548828 7.697266,5.548828 3.582524,0 6.564856,-2.342535 7.697266,-5.548828 h 6.882812 v -5.410156 h -6.882812 c -1.13241,-3.206297 -4.114742,-5.548828 -7.697266,-5.548829 -3.582316,0 -6.564701,2.342816 -7.697266,5.548829 H 7.6484375 C 9.004522,27.863153 18.72664,18.894531 30.574219,18.894531 Z M 44.85742,37.443359 c -2.55228,0 -4.632813,2.092517 -4.632813,4.632813 0,2.540297 2.080488,4.617115 4.626953,4.630859 h 0.002 0.0039 c 2.552281,0 4.630859,-2.090562 4.630859,-4.630859 0,-2.55228 -2.090562,-4.632813 -4.630859,-4.632813 z m 0,1.78125 c 1.575909,0 2.849609,1.264897 2.849609,2.851563 0,1.575258 -1.261911,2.848557 -2.847656,2.849609 -1.591551,-0.0096 -2.853516,-1.274349 -2.853516,-2.849609 0,-1.575906 1.264898,-2.851563 2.851563,-2.851563 z" /></g></svg>
