<?xml version="1.0" encoding="UTF-8" standalone="no"?>
<!-- Created with Inkscape (http://www.inkscape.org/) -->

<svg
   width="138mm"
   height="94mm"
   viewBox="0 0 138 94"
   version="1.1"
   id="svg1"
   xml:space="preserve"
   sodipodi:docname="ayw-logo.svg"
   inkscape:version="1.4 (86a8ad7, 2024-10-11)"
   xmlns:inkscape="http://www.inkscape.org/namespaces/inkscape"
   xmlns:sodipodi="http://sodipodi.sourceforge.net/DTD/sodipodi-0.dtd"
   xmlns="http://www.w3.org/2000/svg"
   xmlns:svg="http://www.w3.org/2000/svg"><sodipodi:namedview
     id="namedview1"
     pagecolor="#ffffff"
     bordercolor="#000000"
     borderopacity="0.25"
     inkscape:showpageshadow="2"
     inkscape:pageopacity="0.0"
     inkscape:pagecheckerboard="0"
     inkscape:deskcolor="#d1d1d1"
     inkscape:document-units="mm"
     inkscape:zoom="1.6813952"
     inkscape:cx="140.06225"
     inkscape:cy="108.54081"
     inkscape:window-width="2560"
     inkscape:window-height="1387"
     inkscape:window-x="-8"
     inkscape:window-y="-8"
     inkscape:window-maximized="1"
     inkscape:current-layer="svg1" /><defs
     id="defs1"><clipPath
       clipPathUnits="userSpaceOnUse"
       id="clipPath2"><path
         d="M 0,841.89 H 1190.551 V 0 H 0 Z"
         transform="translate(-907.2001,-671.07532)"
         id="path2" /></clipPath><clipPath
       clipPathUnits="userSpaceOnUse"
       id="clipPath4"><path
         d="M 0,841.89 H 1190.551 V 0 H 0 Z"
         transform="translate(-753.55434,-657.26572)"
         id="path4" /></clipPath><clipPath
       clipPathUnits="userSpaceOnUse"
       id="clipPath6"><path
         d="M 0,841.89 H 1190.551 V 0 H 0 Z"
         transform="translate(-544.49611,-665.03111)"
         id="path6" /></clipPath><clipPath
       clipPathUnits="userSpaceOnUse"
       id="clipPath8"><path
         d="M 0,841.89 H 1190.551 V 0 H 0 Z"
         transform="translate(-655.12492,-665.03111)"
         id="path8" /></clipPath><clipPath
       clipPathUnits="userSpaceOnUse"
       id="clipPath10"><path
         d="M 0,841.89 H 1190.551 V 0 H 0 Z"
         transform="translate(-414.21301,-671.02241)"
         id="path10" /></clipPath><clipPath
       clipPathUnits="userSpaceOnUse"
       id="clipPath12"><path
         d="M 0,841.89 H 1190.551 V 0 H 0 Z"
         transform="translate(-413.01521,-638.98271)"
         id="path12" /></clipPath><clipPath
       clipPathUnits="userSpaceOnUse"
       id="clipPath14"><path
         d="M 0,841.89 H 1190.551 V 0 H 0 Z"
         transform="translate(-551.23091,-468.06831)"
         id="path14" /></clipPath><clipPath
       clipPathUnits="userSpaceOnUse"
       id="clipPath16"><path
         d="M 0,841.89 H 1190.551 V 0 H 0 Z"
         transform="translate(-621.46012,-474.38051)"
         id="path16" /></clipPath><clipPath
       clipPathUnits="userSpaceOnUse"
       id="clipPath18"><path
         d="M 0,841.89 H 1190.551 V 0 H 0 Z"
         transform="translate(-688.08472,-467.95281)"
         id="path18" /></clipPath><clipPath
       clipPathUnits="userSpaceOnUse"
       id="clipPath20"><path
         d="M 0,841.89 H 1190.551 V 0 H 0 Z"
         transform="translate(-795.23754,-523.67962)"
         id="path20" /></clipPath><clipPath
       clipPathUnits="userSpaceOnUse"
       id="clipPath22"><path
         d="M 0,841.89 H 1190.551 V 0 H 0 Z"
         transform="translate(-728.77752,-467.95261)"
         id="path22" /></clipPath><clipPath
       clipPathUnits="userSpaceOnUse"
       id="clipPath24"><path
         d="M 0,841.89 H 1190.551 V 0 H 0 Z"
         transform="translate(-306.36771,-483.64431)"
         id="path24" /></clipPath><clipPath
       clipPathUnits="userSpaceOnUse"
       id="clipPath26"><path
         d="M 0,841.89 H 1190.551 V 0 H 0 Z"
         transform="translate(-370.82991,-496.13221)"
         id="path26" /></clipPath><clipPath
       clipPathUnits="userSpaceOnUse"
       id="clipPath28"><path
         d="M 0,841.89 H 1190.551 V 0 H 0 Z"
         transform="translate(-843.56635,-483.64431)"
         id="path28" /></clipPath><clipPath
       clipPathUnits="userSpaceOnUse"
       id="clipPath30"><path
         d="M 0,841.89 H 1190.551 V 0 H 0 Z"
         transform="translate(-908.02855,-496.13221)"
         id="path30" /></clipPath><clipPath
       clipPathUnits="userSpaceOnUse"
       id="clipPath32"><path
         d="M 0,841.89 H 1190.551 V 0 H 0 Z"
         transform="translate(-465.93851,-523.65532)"
         id="path32" /></clipPath><clipPath
       clipPathUnits="userSpaceOnUse"
       id="clipPath34"><path
         d="M 0,841.89 H 1190.551 V 0 H 0 Z"
         transform="translate(-473.57691,-518.35511)"
         id="path34" /></clipPath><linearGradient
       id="swatch16"
       inkscape:swatch="solid"><stop
         style="stop-color:#000000;stop-opacity:1;"
         offset="0"
         id="stop16" /></linearGradient><clipPath
       clipPathUnits="userSpaceOnUse"
       id="clipPath2-2"><path
         d="M 0,841.89 H 1190.551 V 0 H 0 Z"
         transform="translate(-907.2001,-671.07532)"
         id="path2-4" /></clipPath><clipPath
       clipPathUnits="userSpaceOnUse"
       id="clipPath4-5"><path
         d="M 0,841.89 H 1190.551 V 0 H 0 Z"
         transform="translate(-753.55434,-657.26572)"
         id="path4-5" /></clipPath><clipPath
       clipPathUnits="userSpaceOnUse"
       id="clipPath6-1"><path
         d="M 0,841.89 H 1190.551 V 0 H 0 Z"
         transform="translate(-544.49611,-665.03111)"
         id="path6-7" /></clipPath><clipPath
       clipPathUnits="userSpaceOnUse"
       id="clipPath8-1"><path
         d="M 0,841.89 H 1190.551 V 0 H 0 Z"
         transform="translate(-655.12492,-665.03111)"
         id="path8-1" /></clipPath><clipPath
       clipPathUnits="userSpaceOnUse"
       id="clipPath10-5"><path
         d="M 0,841.89 H 1190.551 V 0 H 0 Z"
         transform="translate(-414.21301,-671.02241)"
         id="path10-2" /></clipPath><clipPath
       clipPathUnits="userSpaceOnUse"
       id="clipPath12-7"><path
         d="M 0,841.89 H 1190.551 V 0 H 0 Z"
         transform="translate(-413.01521,-638.98271)"
         id="path12-6" /></clipPath><clipPath
       clipPathUnits="userSpaceOnUse"
       id="clipPath14-1"><path
         d="M 0,841.89 H 1190.551 V 0 H 0 Z"
         transform="translate(-551.23091,-468.06831)"
         id="path14-4" /></clipPath><clipPath
       clipPathUnits="userSpaceOnUse"
       id="clipPath16-2"><path
         d="M 0,841.89 H 1190.551 V 0 H 0 Z"
         transform="translate(-621.46012,-474.38051)"
         id="path16-3" /></clipPath><clipPath
       clipPathUnits="userSpaceOnUse"
       id="clipPath18-2"><path
         d="M 0,841.89 H 1190.551 V 0 H 0 Z"
         transform="translate(-688.08472,-467.95281)"
         id="path18-2" /></clipPath><clipPath
       clipPathUnits="userSpaceOnUse"
       id="clipPath20-1"><path
         d="M 0,841.89 H 1190.551 V 0 H 0 Z"
         transform="translate(-795.23754,-523.67962)"
         id="path20-6" /></clipPath><clipPath
       clipPathUnits="userSpaceOnUse"
       id="clipPath22-8"><path
         d="M 0,841.89 H 1190.551 V 0 H 0 Z"
         transform="translate(-728.77752,-467.95261)"
         id="path22-5" /></clipPath><clipPath
       clipPathUnits="userSpaceOnUse"
       id="clipPath24-7"><path
         d="M 0,841.89 H 1190.551 V 0 H 0 Z"
         transform="translate(-306.36771,-483.64431)"
         id="path24-6" /></clipPath><clipPath
       clipPathUnits="userSpaceOnUse"
       id="clipPath26-1"><path
         d="M 0,841.89 H 1190.551 V 0 H 0 Z"
         transform="translate(-370.82991,-496.13221)"
         id="path26-8" /></clipPath><clipPath
       clipPathUnits="userSpaceOnUse"
       id="clipPath28-9"><path
         d="M 0,841.89 H 1190.551 V 0 H 0 Z"
         transform="translate(-843.56635,-483.64431)"
         id="path28-2" /></clipPath><clipPath
       clipPathUnits="userSpaceOnUse"
       id="clipPath30-7"><path
         d="M 0,841.89 H 1190.551 V 0 H 0 Z"
         transform="translate(-908.02855,-496.13221)"
         id="path30-9" /></clipPath><clipPath
       clipPathUnits="userSpaceOnUse"
       id="clipPath32-5"><path
         d="M 0,841.89 H 1190.551 V 0 H 0 Z"
         transform="translate(-465.93851,-523.65532)"
         id="path32-4" /></clipPath><clipPath
       clipPathUnits="userSpaceOnUse"
       id="clipPath34-3"><path
         d="M 0,841.89 H 1190.551 V 0 H 0 Z"
         transform="translate(-473.57691,-518.35511)"
         id="path34-1" /></clipPath></defs><g
     id="layer1"
     transform="translate(-18.591249,-31.551369)"
     style="display:inline"><g
       id="g1"
       transform="matrix(1.5708598,0,0,1.5708598,-75.404336,-44.241316)"
       style="display:inline;fill:#cccccc;fill-opacity:1"><path
         id="path1-4"
         d="m 0,0 c -9.124,0 -16.54,-6.196 -16.54,-13.81 v -52.822 l -56.726,47.366 c -3.259,2.722 -7.548,4.063 -11.827,4.034 -4.279,0.029 -8.568,-1.312 -11.826,-4.034 l -83.96,-71.198 v -31.201 l 95.786,80.691 95.787,-80.691 V 0 Z"
         style="display:inline;fill:#cccccc;fill-opacity:1;fill-rule:nonzero;stroke:none"
         transform="matrix(0.11435305,0,0,-0.11435305,138.18834,66.54866)"
         clip-path="url(#clipPath2)" /><path
         id="path3"
         d="M 0,0 C 0,7.613 -7.416,13.81 -16.54,13.81 H -27.234 V -64.64 L 0,-41.22 Z"
         style="display:inline;fill:#cccccc;fill-opacity:1;fill-rule:nonzero;stroke:none"
         transform="matrix(0.11435305,0,0,-0.11435305,120.61848,68.127831)"
         clip-path="url(#clipPath4)" /><path
         id="path5"
         d="M 0,0 C -4.311,3.89 -9.911,6.044 -15.718,6.044 H -43.585 L 29.23,-59.699 47.688,-43.035 Z"
         style="display:inline;fill:#cccccc;fill-opacity:1;fill-rule:nonzero;stroke:none"
         transform="matrix(0.11435305,0,0,-0.11435305,96.712038,67.239834)"
         clip-path="url(#clipPath6)" /><path
         id="path7"
         d="m 0,0 -66.181,-59.723 c -0.391,-0.353 -0.753,-0.724 -1.096,-1.107 -2.14,-2.392 -3.309,-5.342 -3.309,-8.456 v -16.559 -36.666 l 30.241,25.476 v 11.19 12.362 c 0,2.411 1.044,4.683 2.928,6.392 L 43.585,6.044 H 15.718 C 9.911,6.044 4.311,3.89 0,0"
         style="display:inline;fill:#cccccc;fill-opacity:1;fill-rule:nonzero;stroke:none"
         transform="matrix(0.11435305,0,0,-0.11435305,109.36278,67.239834)"
         clip-path="url(#clipPath8)" /><path
         id="path9"
         d="M 0,0 H -0.13 L -0.14,0.053 -6.664,0.027 -13.188,0.053 -13.199,0 h -0.13 c -4.486,-0.009 -9.313,-2.472 -12.467,-6.362 l -93.855,-115.756 24.868,0.048 c 5.644,0.01 11.687,3.031 15.782,7.817 L 10.434,-4.278 C 7.431,-1.624 3.613,-0.007 0,0"
         style="display:inline;fill:#cccccc;fill-opacity:1;fill-rule:nonzero;stroke:none"
         transform="matrix(0.11435305,0,0,-0.11435305,81.813768,66.554711)"
         clip-path="url(#clipPath10)" /><path
         id="path11"
         d="m 0,0 25.027,-30.787 h -50.064 l -4.588,-5.642 -12.449,-15.878 h 84.595 l 23.972,-29.49 c 4.094,-5.036 10.347,-8.223 16.159,-8.234 L 107.52,-90.078 17.268,21.234 Z"
         style="display:inline;fill:#cccccc;fill-opacity:1;fill-rule:nonzero;stroke:none"
         transform="matrix(0.11435305,0,0,-0.11435305,81.676796,70.218548)"
         clip-path="url(#clipPath12)" /><path
         id="path13"
         d="M 0,0 C 4.17,0 7.56,2.832 7.56,6.312 V 30.457 L 33.489,8.806 c 1.489,-1.244 3.45,-1.857 5.406,-1.844 1.955,-0.013 3.916,0.6 5.405,1.844 L 82.677,41.35 V 55.611 L 38.895,18.729 -4.888,55.611 V 0 Z"
         style="display:inline;fill:#cccccc;fill-opacity:1;fill-rule:nonzero;stroke:none"
         transform="matrix(0.11435305,0,0,-0.11435305,97.482182,89.763131)"
         clip-path="url(#clipPath14)" /><path
         id="path15"
         d="m 0,0 c 0,-3.48 3.39,-6.312 7.56,-6.312 h 4.888 V 29.546 L 0,18.841 Z"
         style="display:inline;fill:#cccccc;fill-opacity:1;fill-rule:nonzero;stroke:none"
         transform="matrix(0.11435305,0,0,-0.11435305,105.51311,89.041313)"
         clip-path="url(#clipPath16)" /><path
         id="path17"
         d="m 0,0 v 55.727 h -4.888 c -4.17,0 -7.56,-2.832 -7.56,-6.312 V 0 Z"
         style="display:inline;fill:#cccccc;fill-opacity:1;fill-rule:nonzero;stroke:none"
         transform="matrix(0.11435305,0,0,-0.11435305,113.13183,89.776339)"
         clip-path="url(#clipPath18)" /><path
         id="path19"
         d="m 0,0 c -4.17,0 -7.56,-2.832 -7.56,-6.312 v -4.985 -22.854 l -58.9,34.035 v -14.331 l 71.348,-41.03 v 0.853 0 4.984 V -4.985 0 Z"
         style="display:inline;fill:#cccccc;fill-opacity:1;fill-rule:nonzero;stroke:none"
         transform="matrix(0.11435305,0,0,-0.11435305,125.38508,83.403809)"
         clip-path="url(#clipPath20)" /><path
         id="path21"
         d="m 0,0 h 4.888 c 4.17,0 7.56,2.832 7.56,6.312 V 28.835 L 0,35.865 Z"
         style="display:inline;fill:#cccccc;fill-opacity:1;fill-rule:nonzero;stroke:none"
         transform="matrix(0.11435305,0,0,-0.11435305,117.78518,89.776362)"
         clip-path="url(#clipPath22)" /><path
         id="path23"
         d="m 0,0 c -0.024,0.158 -0.04,0.317 -0.04,0.48 v 23.515 c 0,2.271 2.418,4.112 5.401,4.112 h 56.424 l 9.509,11.928 H 5.361 c -4.037,0 -7.96,-1.293 -11.044,-3.641 -3.994,-3.041 -6.285,-7.56 -6.285,-12.399 V 0.48 c 0,-3.262 1.06,-6.298 2.874,-8.833 z"
         style="display:inline;fill:#cccccc;fill-opacity:1;fill-rule:nonzero;stroke:none"
         transform="matrix(0.11435305,0,0,-0.11435305,69.481329,87.981969)"
         clip-path="url(#clipPath24)" /><path
         id="path25"
         d="m 0,0 c -2.614,0 -4.734,-2.119 -4.734,-4.734 v -7.274 c 0,-2.271 -2.418,-4.112 -5.401,-4.112 h -48.966 c -0.816,0 -1.586,0.142 -2.28,0.388 l -9.1,-8.358 c 3.047,-2.462 7.027,-3.958 11.38,-3.958 h 51.638 c 9.555,0 17.329,7.195 17.329,16.04 L 9.866,0 Z"
         style="display:inline;fill:#cccccc;fill-opacity:1;fill-rule:nonzero;stroke:none"
         transform="matrix(0.11435305,0,0,-0.11435305,76.852778,86.553939)"
         clip-path="url(#clipPath26)" /><path
         id="path27"
         d="m 0,0 c -0.024,0.158 -0.04,0.317 -0.04,0.48 v 23.515 c 0,2.271 2.418,4.112 5.401,4.112 h 56.423 l 9.51,11.928 H 5.361 c -4.037,0 -7.96,-1.293 -11.044,-3.641 -3.994,-3.041 -6.285,-7.56 -6.285,-12.399 V 0.48 c 0,-3.262 1.06,-6.298 2.874,-8.833 z"
         style="display:inline;fill:#cccccc;fill-opacity:1;fill-rule:nonzero;stroke:none"
         transform="matrix(0.11435305,0,0,-0.11435305,130.91163,87.981969)"
         clip-path="url(#clipPath28)" /><path
         id="path29"
         d="m 0,0 c -2.614,0 -4.734,-2.119 -4.734,-4.734 v -7.274 c 0,-2.271 -2.418,-4.112 -5.401,-4.112 h -48.966 c -0.816,0 -1.586,0.142 -2.28,0.388 l -9.1,-8.358 c 3.047,-2.462 7.027,-3.958 11.38,-3.958 h 51.637 c 9.556,0 17.33,7.195 17.33,16.04 L 9.866,0 Z"
         style="display:inline;fill:#cccccc;fill-opacity:1;fill-rule:nonzero;stroke:none"
         transform="matrix(0.11435305,0,0,-0.11435305,138.28308,86.553939)"
         clip-path="url(#clipPath30)" /><path
         id="path31"
         d="M 0,0 H -0.059 L -0.064,0.024 -3.046,0.012 -6.028,0.024 -6.033,0 h -0.059 c -2.051,-0.004 -4.257,-1.13 -5.699,-2.908 l -42.9,-52.91 11.367,0.022 c 2.58,0.004 5.342,1.385 7.214,3.573 L 4.769,-1.955 C 3.397,-0.742 1.651,-0.003 0,0"
         style="display:inline;fill:#cccccc;fill-opacity:1;fill-rule:nonzero;stroke:none"
         transform="matrix(0.11435305,0,0,-0.11435305,87.728736,83.406588)"
         clip-path="url(#clipPath32)" /><path
         id="path33"
         d="M 0,0 -7.888,-9.711 3.254,-23.417 H -19.02 l -7.989,-9.836 H 11.25 l 10.957,-13.48 c 1.871,-2.302 4.73,-3.758 7.386,-3.763 l 11.367,-0.022 z"
         style="display:inline;fill:#cccccc;fill-opacity:1;fill-rule:nonzero;stroke:none"
         transform="matrix(0.11435305,0,0,-0.11435305,88.602213,84.012682)"
         clip-path="url(#clipPath34)" /></g><rect
       style="display:inline;opacity:0;fill:#ffffff;fill-opacity:1;stroke-width:0.32321"
       id="rect1"
       width="138"
       height="94"
       x="18.591249"
       y="31.551369" /></g></svg>
