<?xml version="1.0" encoding="UTF-8" standalone="no"?>
<!-- Created with Inkscape (http://www.inkscape.org/) -->

<svg
   width="93.235435mm"
   height="93.235443mm"
   viewBox="0 0 93.235435 93.235443"
   version="1.1"
   id="svg1"
   xml:space="preserve"
   xmlns="http://www.w3.org/2000/svg"
   xmlns:svg="http://www.w3.org/2000/svg"><defs
     id="defs1"><linearGradient
       id="swatch16"><stop
         style="stop-color:#000000;stop-opacity:1;"
         offset="0"
         id="stop16" /></linearGradient></defs><g
     id="layer1"
     transform="translate(-57.144302,-31.551371)"><g
       id="g3"
       transform="translate(0,0.21538947)"
       style="fill:#f51928;fill-opacity:1"><g
         id="layer1-2"
         transform="matrix(0.31438878,0,0,0.31438878,68.853264,54.413982)"
         style="fill:#7ccaa2;fill-opacity:1"><path
           style="display:inline;fill:#7ccaa2;fill-opacity:1;stroke-width:0.333333"
           d="m 116.39159,84.246028 c -5.32377,-0.21367 -12.65043,-1.97349 -19.186096,-4.60839 -2.216203,-0.89348 -4.21687,-1.85634 -5.526833,-2.65989 l -0.08905,-0.0546 0.470049,-0.3205 c 0.839503,-0.57241 3.969964,-2.65639 5.070269,-3.37534 7.138861,-4.6646 13.883881,-8.74427 19.445111,-11.76122 2.59027,-1.40522 5.16167,-2.69359 6.82977,-3.42198 4.06563,-1.77528 8.96462,-3.19912 13.589,-3.94947 1.01311,-0.16439 2.52365,-0.35181 2.55806,-0.3174 0.0225,0.0225 -0.0492,0.4357 -0.11649,0.67118 -0.30064,1.05188 -1.07078,2.21113 -1.79246,2.69808 -0.20309,0.13704 -0.28758,0.17441 -1.81112,0.80106 -14.23341,5.85441 -26.34909,11.8055 -34.90598,17.14545 -1.153966,0.72013 -2.521245,1.60631 -2.53306,1.64175 -0.01583,0.0475 1.599745,0.61852 2.98461,1.0549 3.30351,1.04096 6.70135,1.80217 9.48267,2.1244 1.70974,0.19808 3.39595,0.26836 4.12605,0.17198 1.63615,-0.21598 3.28991,-1.17111 5.03354,-2.90712 1.88372,-1.87549 3.74567,-4.53627 5.45791,-7.79954 0.32161,-0.61294 0.74242,-1.47383 0.72764,-1.48861 -0.004,-0.004 -3.89393,1.15124 -8.64324,2.56823 -4.74932,1.417 -8.66687,2.5849 -8.70568,2.59534 -0.0968,0.026 3.12237,-1.58474 4.30389,-2.15356 5.6167,-2.70405 11.72193,-5.43647 17.87878,-8.00173 2.69807,-1.12415 5.29855,-2.1762 5.32178,-2.15297 0.0291,0.0291 -0.84008,2.07111 -1.46882,3.45062 -2.59517,5.69408 -5.47543,10.61359 -8.19563,13.99822 -2.58727,3.21924 -5.02018,5.13756 -7.37552,5.8155 -0.85159,0.24511 -1.46443,0.29441 -2.92915,0.23563 z m -22.444861,-0.15293 c -2.135976,-0.97273 -4.229761,-2.30698 -5.896981,-3.75781 -0.484493,-0.42161 -1.36152,-1.30687 -1.743023,-1.75939 -0.67069,-0.79553 -1.756367,-2.32471 -3.867144,-5.44689 -1.24428,-1.84049 -4.514873,-6.7731 -4.514873,-6.80919 0,-0.007 0.212727,0.1004 0.472723,0.23965 0.767127,0.41089 2.559994,1.31806 3.3655,1.70291 2.007737,0.95926 3.51998,1.59073 4.882444,2.0388 0.701976,0.23086 0.96803,0.3017 1.348456,0.35904 0.35131,0.053 0.521184,0.0523 0.790567,-0.003 0.565057,-0.11594 0.979657,-0.41727 2.200967,-1.59965 0.29059,-0.28133 1.087142,-1.05266 1.77012,-1.71407 8.484965,-8.21705 14.868425,-13.70702 18.104555,-15.57045 0.62755,-0.36136 1.2038,-0.62163 2.25778,-1.01976 4.33404,-1.63712 10.09093,-2.78236 15.76211,-3.13559 1.16078,-0.0723 2.14071,-0.0891 4.71311,-0.0809 l 2.70933,0.009 -0.61799,0.21997 c -0.33989,0.12099 -1.20349,0.41775 -1.91911,0.65948 -4.14987,1.40178 -6.62294,2.38013 -9.9089,3.91996 -0.85043,0.39852 -3.36989,1.66216 -4.24744,2.13031 -6.74523,3.59842 -13.71696,8.21984 -23.650223,15.67726 -3.29994,2.47743 -4.833362,3.74753 -5.762769,4.77316 -1.091543,1.20455 -1.380207,2.01687 -1.036357,2.91642 0.32255,0.84383 2.133984,3.12156 4.662225,5.86237 0.276031,0.29924 0.491931,0.54319 0.479777,0.54211 -0.01215,-10e-4 -0.171838,-0.0702 -0.354854,-0.15351 z m -12.197911,-7.42005 c -4.402907,-1.26713 -7.559463,-2.59775 -8.999547,-3.79371 -1.046913,-0.86943 -2.418616,-3.1636 -3.8415,-6.42488 -0.483806,-1.1089 -0.988636,-2.3691 -0.936023,-2.33658 0.03598,0.0222 14.441,12.61922 14.55254,12.72599 0.03845,0.0368 0.06385,0.0664 0.05645,0.0658 -0.0074,-6.7e-4 -0.38177,-0.1071 -0.831917,-0.23664 z"
           id="path1-1"
           transform="matrix(3.1807751,0,0,3.1807751,-219.00675,-173.07864)" /><path
           style="display:inline;fill:#7ccaa2;fill-opacity:1"
           d="m 20.814203,148.43125 v -23.19866 h 26.669999 26.669999 v 12.36133 12.36133 h -7.330722 c -4.467289,0 -7.319698,0.0307 -7.302499,0.0785 0.01552,0.0432 4.200172,4.84647 9.299222,10.67398 5.099049,5.82751 9.323271,10.66899 9.38716,10.75883 0.114512,0.16104 3.9e-4,0.16335 -8.043333,0.1626 l -8.159494,-7.5e-4 -12.450057,-14.20208 -12.450058,-14.20208 11.709224,-0.0215 11.709225,-0.0215 v -5.5877 -5.5877 h -12.827 -12.827 v 19.812 19.812 H 27.841536 20.814203 Z M 89.665,165.26577 84.060201,158.90162 V 142.0671 125.23259 h 26.331329 26.33133 v 23.19866 23.19867 H 115.99633 95.269798 Z m 33.17253,-16.83452 V 132.00592 H 110.3492 97.860867 v 11.93654 11.93654 l 3.958023,4.48879 3.95802,4.48879 h 8.53031 8.53031 z m 23.45267,0 v -23.19866 h 27.48471 27.48471 l -0.54421,0.61383 c -0.29931,0.33761 -1.62046,1.86161 -2.9359,3.38667 l -2.39171,2.77283 h -17.47914 -17.47913 v 16.42533 16.42533 h 12.48833 12.48833 v -9.22866 -9.22867 h 6.90034 6.90033 v 12.61533 12.61534 H 172.74853 146.2902 Z"
           id="path1" /></g><rect
         style="opacity:0;fill:#bc93fa;fill-opacity:0.992157;stroke-width:0.264583"
         id="rect1"
         width="93.235443"
         height="93.235443"
         x="57.144302"
         y="31.551369"
         transform="translate(0,-0.21538947)" /></g></g></svg>
