<?xml version="1.0" encoding="UTF-8" standalone="no"?>
<!-- Created with Inkscape (http://www.inkscape.org/) -->

<svg
   width="138mm"
   height="94mm"
   viewBox="0 0 138 94"
   version="1.1"
   id="svg1"
   xml:space="preserve"
   sodipodi:docname="mpg.svg"
   inkscape:version="1.4 (86a8ad7, 2024-10-11)"
   xmlns:inkscape="http://www.inkscape.org/namespaces/inkscape"
   xmlns:sodipodi="http://sodipodi.sourceforge.net/DTD/sodipodi-0.dtd"
   xmlns="http://www.w3.org/2000/svg"
   xmlns:svg="http://www.w3.org/2000/svg"><sodipodi:namedview
     id="namedview1"
     pagecolor="#ffffff"
     bordercolor="#000000"
     borderopacity="0.25"
     inkscape:showpageshadow="2"
     inkscape:pageopacity="0.0"
     inkscape:pagecheckerboard="0"
     inkscape:deskcolor="#d1d1d1"
     inkscape:document-units="mm"
     inkscape:zoom="1.6813952"
     inkscape:cx="140.06225"
     inkscape:cy="108.54081"
     inkscape:window-width="2560"
     inkscape:window-height="1387"
     inkscape:window-x="-8"
     inkscape:window-y="-8"
     inkscape:window-maximized="1"
     inkscape:current-layer="layer1" /><defs
     id="defs1"><clipPath
       clipPathUnits="userSpaceOnUse"
       id="clipPath2"><path
         d="M 0,841.89 H 1190.551 V 0 H 0 Z"
         transform="translate(-907.2001,-671.07532)"
         id="path2" /></clipPath><clipPath
       clipPathUnits="userSpaceOnUse"
       id="clipPath4"><path
         d="M 0,841.89 H 1190.551 V 0 H 0 Z"
         transform="translate(-753.55434,-657.26572)"
         id="path4" /></clipPath><clipPath
       clipPathUnits="userSpaceOnUse"
       id="clipPath6"><path
         d="M 0,841.89 H 1190.551 V 0 H 0 Z"
         transform="translate(-544.49611,-665.03111)"
         id="path6" /></clipPath><clipPath
       clipPathUnits="userSpaceOnUse"
       id="clipPath8"><path
         d="M 0,841.89 H 1190.551 V 0 H 0 Z"
         transform="translate(-655.12492,-665.03111)"
         id="path8" /></clipPath><clipPath
       clipPathUnits="userSpaceOnUse"
       id="clipPath10"><path
         d="M 0,841.89 H 1190.551 V 0 H 0 Z"
         transform="translate(-414.21301,-671.02241)"
         id="path10" /></clipPath><clipPath
       clipPathUnits="userSpaceOnUse"
       id="clipPath12"><path
         d="M 0,841.89 H 1190.551 V 0 H 0 Z"
         transform="translate(-413.01521,-638.98271)"
         id="path12" /></clipPath><clipPath
       clipPathUnits="userSpaceOnUse"
       id="clipPath14"><path
         d="M 0,841.89 H 1190.551 V 0 H 0 Z"
         transform="translate(-551.23091,-468.06831)"
         id="path14" /></clipPath><clipPath
       clipPathUnits="userSpaceOnUse"
       id="clipPath16"><path
         d="M 0,841.89 H 1190.551 V 0 H 0 Z"
         transform="translate(-621.46012,-474.38051)"
         id="path16" /></clipPath><clipPath
       clipPathUnits="userSpaceOnUse"
       id="clipPath18"><path
         d="M 0,841.89 H 1190.551 V 0 H 0 Z"
         transform="translate(-688.08472,-467.95281)"
         id="path18" /></clipPath><clipPath
       clipPathUnits="userSpaceOnUse"
       id="clipPath20"><path
         d="M 0,841.89 H 1190.551 V 0 H 0 Z"
         transform="translate(-795.23754,-523.67962)"
         id="path20" /></clipPath><clipPath
       clipPathUnits="userSpaceOnUse"
       id="clipPath22"><path
         d="M 0,841.89 H 1190.551 V 0 H 0 Z"
         transform="translate(-728.77752,-467.95261)"
         id="path22" /></clipPath><clipPath
       clipPathUnits="userSpaceOnUse"
       id="clipPath24"><path
         d="M 0,841.89 H 1190.551 V 0 H 0 Z"
         transform="translate(-306.36771,-483.64431)"
         id="path24" /></clipPath><clipPath
       clipPathUnits="userSpaceOnUse"
       id="clipPath26"><path
         d="M 0,841.89 H 1190.551 V 0 H 0 Z"
         transform="translate(-370.82991,-496.13221)"
         id="path26" /></clipPath><clipPath
       clipPathUnits="userSpaceOnUse"
       id="clipPath28"><path
         d="M 0,841.89 H 1190.551 V 0 H 0 Z"
         transform="translate(-843.56635,-483.64431)"
         id="path28" /></clipPath><clipPath
       clipPathUnits="userSpaceOnUse"
       id="clipPath30"><path
         d="M 0,841.89 H 1190.551 V 0 H 0 Z"
         transform="translate(-908.02855,-496.13221)"
         id="path30" /></clipPath><clipPath
       clipPathUnits="userSpaceOnUse"
       id="clipPath32"><path
         d="M 0,841.89 H 1190.551 V 0 H 0 Z"
         transform="translate(-465.93851,-523.65532)"
         id="path32" /></clipPath><clipPath
       clipPathUnits="userSpaceOnUse"
       id="clipPath34"><path
         d="M 0,841.89 H 1190.551 V 0 H 0 Z"
         transform="translate(-473.57691,-518.35511)"
         id="path34" /></clipPath><linearGradient
       id="swatch16"
       inkscape:swatch="solid"><stop
         style="stop-color:#000000;stop-opacity:1;"
         offset="0"
         id="stop16" /></linearGradient><clipPath
       clipPathUnits="userSpaceOnUse"
       id="clipPath2-2"><path
         d="M 0,841.89 H 1190.551 V 0 H 0 Z"
         transform="translate(-907.2001,-671.07532)"
         id="path2-4" /></clipPath><clipPath
       clipPathUnits="userSpaceOnUse"
       id="clipPath4-5"><path
         d="M 0,841.89 H 1190.551 V 0 H 0 Z"
         transform="translate(-753.55434,-657.26572)"
         id="path4-5" /></clipPath><clipPath
       clipPathUnits="userSpaceOnUse"
       id="clipPath6-1"><path
         d="M 0,841.89 H 1190.551 V 0 H 0 Z"
         transform="translate(-544.49611,-665.03111)"
         id="path6-7" /></clipPath><clipPath
       clipPathUnits="userSpaceOnUse"
       id="clipPath8-1"><path
         d="M 0,841.89 H 1190.551 V 0 H 0 Z"
         transform="translate(-655.12492,-665.03111)"
         id="path8-1" /></clipPath><clipPath
       clipPathUnits="userSpaceOnUse"
       id="clipPath10-5"><path
         d="M 0,841.89 H 1190.551 V 0 H 0 Z"
         transform="translate(-414.21301,-671.02241)"
         id="path10-2" /></clipPath><clipPath
       clipPathUnits="userSpaceOnUse"
       id="clipPath12-7"><path
         d="M 0,841.89 H 1190.551 V 0 H 0 Z"
         transform="translate(-413.01521,-638.98271)"
         id="path12-6" /></clipPath><clipPath
       clipPathUnits="userSpaceOnUse"
       id="clipPath14-1"><path
         d="M 0,841.89 H 1190.551 V 0 H 0 Z"
         transform="translate(-551.23091,-468.06831)"
         id="path14-4" /></clipPath><clipPath
       clipPathUnits="userSpaceOnUse"
       id="clipPath16-2"><path
         d="M 0,841.89 H 1190.551 V 0 H 0 Z"
         transform="translate(-621.46012,-474.38051)"
         id="path16-3" /></clipPath><clipPath
       clipPathUnits="userSpaceOnUse"
       id="clipPath18-2"><path
         d="M 0,841.89 H 1190.551 V 0 H 0 Z"
         transform="translate(-688.08472,-467.95281)"
         id="path18-2" /></clipPath><clipPath
       clipPathUnits="userSpaceOnUse"
       id="clipPath20-1"><path
         d="M 0,841.89 H 1190.551 V 0 H 0 Z"
         transform="translate(-795.23754,-523.67962)"
         id="path20-6" /></clipPath><clipPath
       clipPathUnits="userSpaceOnUse"
       id="clipPath22-8"><path
         d="M 0,841.89 H 1190.551 V 0 H 0 Z"
         transform="translate(-728.77752,-467.95261)"
         id="path22-5" /></clipPath><clipPath
       clipPathUnits="userSpaceOnUse"
       id="clipPath24-7"><path
         d="M 0,841.89 H 1190.551 V 0 H 0 Z"
         transform="translate(-306.36771,-483.64431)"
         id="path24-6" /></clipPath><clipPath
       clipPathUnits="userSpaceOnUse"
       id="clipPath26-1"><path
         d="M 0,841.89 H 1190.551 V 0 H 0 Z"
         transform="translate(-370.82991,-496.13221)"
         id="path26-8" /></clipPath><clipPath
       clipPathUnits="userSpaceOnUse"
       id="clipPath28-9"><path
         d="M 0,841.89 H 1190.551 V 0 H 0 Z"
         transform="translate(-843.56635,-483.64431)"
         id="path28-2" /></clipPath><clipPath
       clipPathUnits="userSpaceOnUse"
       id="clipPath30-7"><path
         d="M 0,841.89 H 1190.551 V 0 H 0 Z"
         transform="translate(-908.02855,-496.13221)"
         id="path30-9" /></clipPath><clipPath
       clipPathUnits="userSpaceOnUse"
       id="clipPath32-5"><path
         d="M 0,841.89 H 1190.551 V 0 H 0 Z"
         transform="translate(-465.93851,-523.65532)"
         id="path32-4" /></clipPath><clipPath
       clipPathUnits="userSpaceOnUse"
       id="clipPath34-3"><path
         d="M 0,841.89 H 1190.551 V 0 H 0 Z"
         transform="translate(-473.57691,-518.35511)"
         id="path34-1" /></clipPath><clipPath
       clipPathUnits="userSpaceOnUse"
       id="clipPath4-52"><path
         d="M 0,122.542 H 245.1 V 0 H 0 Z"
         transform="translate(-104.93601,-40.843001)"
         id="path4-7" /></clipPath></defs><g
     id="layer1"
     transform="translate(-18.591249,-31.551369)"
     style="display:inline"><rect
       style="display:inline;opacity:0;fill:#ffffff;fill-opacity:1;stroke-width:0.32321"
       id="rect1"
       width="138"
       height="94"
       x="18.591249"
       y="31.551369" /><g
       transform="matrix(0.02016613,0,0,-0.02016613,3.4549618,107.69143)"
       fill="#000000"
       stroke="none"
       id="g25"
       style="fill:#f51928;fill-opacity:1"><path
         d="m 1450,2054 c 39,-10 1073,-194 1090,-194 11,0 20,-4 20,-10 0,-5 -22,-47 -49,-92 -107,-183 -531,-920 -531,-924 0,-3 66,-3 147,-2 l 147,3 122,210 c 66,116 189,329 273,475 84,146 157,269 162,274 8,9 234,-26 246,-37 3,-3 -356,-634 -524,-919 -2,-5 63,-8 144,-8 h 148 l 180,312 c 98,172 257,448 352,612 95,165 173,301 173,303 0,2 -476,2 -1057,2 -582,-1 -1051,-3 -1043,-5 z"
         id="path1-8" /><path
         d="m 3790,2018 c -13,-24 -171,-299 -352,-612 -180,-313 -328,-571 -328,-572 0,-2 65,-4 145,-4 h 145 l 23,38 c 13,20 142,243 286,495 l 264,457 h 408 c 225,0 409,-3 409,-6 0,-5 -235,-417 -258,-451 -6,-9 -80,1 -307,42 -165,30 -300,53 -302,52 -3,-4 656,-477 671,-483 6,-2 138,218 294,489 155,271 296,516 313,545 l 31,52 h -709 -709 z"
         id="path2-2" /><path
         d="m 5535,2055 c 9,-4 1206,-223 1244,-228 9,-1 35,33 64,83 27,47 58,100 69,118 l 20,32 -704,-1 c -387,0 -698,-2 -693,-4 z"
         id="path3" /><path
         d="m 5284,1702 c -33,-59 -156,-272 -272,-474 -117,-203 -215,-375 -218,-383 -6,-13 74,-15 711,-13 l 718,3 178,310 c 99,170 179,312 179,315 0,3 -183,39 -407,79 -225,40 -419,75 -433,78 -14,3 74,-65 195,-152 121,-86 226,-163 234,-170 12,-12 6,-29 -45,-117 l -59,-103 -422,-3 c -233,-1 -423,1 -423,6 0,4 4,12 9,18 18,19 382,657 377,661 -3,3 -261,55 -261,53 0,-1 -27,-49 -61,-108 z"
         id="path4-1" /><path
         d="m 1892,1678 c -47,-78 -473,-820 -479,-834 -5,-13 15,-14 142,-12 l 147,3 204,355 c 113,195 221,382 240,416 l 34,61 -107,17 c -60,9 -120,19 -134,22 -22,4 -30,-1 -47,-28 z"
         id="path5" /></g></g></svg>
