<?xml version="1.0" encoding="UTF-8" standalone="no"?>
<!-- Created with Inkscape (http://www.inkscape.org/) -->

<svg
   width="138mm"
   height="94mm"
   viewBox="0 0 138 94"
   version="1.1"
   id="svg1"
   xml:space="preserve"
   inkscape:version="1.4 (86a8ad7, 2024-10-11)"
   sodipodi:docname="mаg.svg"
   inkscape:export-filename="ROG-logo-white-40.png"
   inkscape:export-xdpi="10.897143"
   inkscape:export-ydpi="10.897143"
   xmlns:inkscape="http://www.inkscape.org/namespaces/inkscape"
   xmlns:sodipodi="http://sodipodi.sourceforge.net/DTD/sodipodi-0.dtd"
   xmlns="http://www.w3.org/2000/svg"
   xmlns:svg="http://www.w3.org/2000/svg"><sodipodi:namedview
     id="namedview1"
     pagecolor="#ffffff"
     bordercolor="#000000"
     borderopacity="0.25"
     inkscape:showpageshadow="2"
     inkscape:pageopacity="0.0"
     inkscape:pagecheckerboard="0"
     inkscape:deskcolor="#d1d1d1"
     inkscape:document-units="mm"
     inkscape:zoom="2.1113215"
     inkscape:cx="171.69342"
     inkscape:cy="54.705075"
     inkscape:window-width="2560"
     inkscape:window-height="1387"
     inkscape:window-x="-8"
     inkscape:window-y="-8"
     inkscape:window-maximized="1"
     inkscape:current-layer="layer1"
     inkscape:export-bgcolor="#ffffff00" /><defs
     id="defs1"><linearGradient
       id="swatch16"
       inkscape:swatch="solid"><stop
         style="stop-color:#000000;stop-opacity:1;"
         offset="0"
         id="stop16" /></linearGradient></defs><rect
     style="opacity:0;fill:#bc93fa;fill-opacity:0.992157;stroke-width:0.32321"
     id="rect1"
     width="138"
     height="94"
     x="0"
     y="0"
     inkscape:export-filename="ROG-logo-mint-40.svg"
     inkscape:export-xdpi="10.897143"
     inkscape:export-ydpi="10.897143"
     inkscape:label="frame" /><g
     inkscape:label="Layer 1"
     inkscape:groupmode="layer"
     id="layer1"
     inkscape:export-filename="ROG-logo-retro-40.png"
     inkscape:export-xdpi="10.897143"
     inkscape:export-ydpi="10.897143"
     transform="translate(-57.144303,-31.551369)"><g
       id="g2"
       transform="matrix(0.12161212,0,0,0.12161212,93.339448,84.714501)"><path
         style="fill:#b9b9b9;fill-opacity:1;stroke-width:0.264583"
         d="m 144.283,61.908925 c -2.78772,-4.836708 -7.27831,-12.621718 -9.97908,-17.300022 -2.70078,-4.678304 -4.94429,-8.620863 -4.98558,-8.761242 -0.0413,-0.140379 1.02126,-2.146738 2.36124,-4.458576 l 2.43631,-4.203341 20.248,0.132292 20.24799,0.132292 2.25267,3.908331 c 1.23897,2.149581 2.25267,4.023308 2.25267,4.163836 V 35.778 l -19.57917,-0.0628 -19.57917,-0.06279 v 0.234386 c 0,0.128913 3.42305,6.169763 7.60678,13.424114 l 7.60677,13.189725 14.35364,0.0035 14.35365,0.0035 v -0.236456 c 0,-0.13005 -1.14245,-2.212223 -2.53879,-4.627051 l -2.53878,-4.390597 -9.9511,-0.0693 -9.95109,-0.0693 -2.32679,-4.06255 c -1.27973,-2.234401 -2.32679,-4.109635 -2.32679,-4.167187 0,-0.05755 6.83585,-0.104638 15.19077,-0.104638 h 15.19077 l 0.99646,1.785937 c 0.54804,0.982266 2.88001,5.039506 5.18214,9.016087 2.30213,3.976585 4.1857,7.308519 4.1857,7.404301 0,0.09578 -0.97673,1.872605 -2.17051,3.948494 l -2.1705,3.774347 -20.64981,-0.0034 -20.64981,-0.0034 z"
         transform="matrix(5.5790636,0,0,5.5790636,-302.48954,-329.32266)"
         id="path7" /><path
         style="fill:#b9b9b9;fill-opacity:1;stroke-width:0.264583"
         d="m 128.37663,68.526888 c -0.70619,-1.200547 -2.28837,-3.935995 -3.51597,-6.078773 l -2.23198,-3.895963 -13.1472,-0.07279 -13.147195,-0.07279 2.403186,-4.167187 2.403189,-4.167188 h 8.16432 8.16432 v -0.213566 c 0,-0.183002 -14.42247,-25.341751 -15.91717,-27.766121 l -0.53015,-0.859896 5.37939,0.01025 5.37939,0.01025 5.95313,10.36338 c 8.39205,14.609151 20.68847,35.955638 22.40492,38.894773 l 0.11589,0.198437 h -5.29705 -5.29704 z"
         transform="matrix(5.5790636,0,0,5.5790636,-302.48954,-329.32266)"
         id="path6" /><path
         style="fill:#b9b9b9;fill-opacity:1;stroke-width:0.264583"
         d="m 69.579719,70.577628 c 0,-0.07866 0.278847,-0.587145 0.619662,-1.129956 0.340813,-0.542811 4.289878,-7.356774 8.775697,-15.142138 4.485818,-7.785365 9.459482,-16.417396 11.052585,-19.182292 1.593104,-2.764896 3.369313,-5.839352 3.947134,-6.832125 l 1.050578,-1.805042 2.623005,4.549411 c 1.442654,2.502177 2.62301,4.601598 2.62301,4.665379 0,0.06378 -3.176563,5.615378 -7.059024,12.33688 -3.882462,6.721501 -8.391552,14.542632 -10.020202,17.380288 l -2.961185,5.159375 -5.325631,0.07163 c -2.929097,0.03939 -5.325629,0.0073 -5.325629,-0.07141 z"
         transform="matrix(5.5790636,0,0,5.5790636,-302.48954,-329.32266)"
         id="path1" /><path
         style="fill:#b9b9b9;fill-opacity:1;stroke-width:0.264583"
         d="m 10.313053,70.624178 c 0,-0.04704 5.631137,-9.839928 12.513638,-21.761979 L 35.340329,27.185744 h 20.182274 20.182273 l 2.462567,4.262801 2.462564,4.2628 -10.089207,17.49663 -10.089206,17.496631 -5.225521,0.0026 -5.22552,0.0026 0.0019,-0.198438 c 0.0021,-0.225467 -0.564039,0.767469 10.933403,-19.17125 4.75856,-8.252234 8.722368,-15.187625 8.808461,-15.411979 l 0.156649,-0.408112 h -4.352925 -4.352925 l -0.397801,0.463021 c -0.316762,0.368698 -6.196121,10.449991 -9.412523,16.139583 L 50.74911,53.24711 h -5.269045 -5.269048 v -0.205711 c 0,-0.113143 0.164082,-0.440565 0.364623,-0.727604 0.706035,-1.010563 9.424961,-16.330784 9.424961,-16.560811 v -0.232957 h -4.33323 -4.333226 l -0.265272,0.330729 c -0.145899,0.181901 -4.105759,6.998229 -8.799687,15.147396 -4.69393,8.149167 -9.176938,15.917995 -9.962239,17.264062 l -1.427823,2.447396 h -5.283012 c -2.905656,0 -5.283011,-0.03849 -5.283011,-0.08552 z"
         transform="matrix(5.5790636,0,0,5.5790636,-302.48954,-329.32266)"
         id="path3300" /></g></g></svg>
