<?xml version="1.0" encoding="iso-8859-1"?>
<!-- Uploaded to: SVG Repo, www.svgrepo.com, Generator: SVG Repo Mixer Tools -->
<svg fill="#000000" height="800px" width="800px" version="1.1" id="Layer_1" xmlns="http://www.w3.org/2000/svg" xmlns:xlink="http://www.w3.org/1999/xlink" 
	 viewBox="0 0 512 512" xml:space="preserve">
<g>
	<g>
		<path d="M136.533,187.733c0-4.71-3.823-8.533-8.533-8.533H59.733c-4.71,0-8.533,3.823-8.533,8.533v25.6
			c0,4.71,3.823,8.533,8.533,8.533h68.275c4.71,0,8.533-3.823,8.533-8.533L136.533,187.733z"/>
	</g>
</g>
<g>
	<g>
		<circle cx="358.4" cy="281.6" r="68.267"/>
	</g>
</g>
<g>
	<g>
		<path d="M358.4,179.2c-56.465,0-102.4,45.935-102.4,102.4c0,56.465,45.935,102.4,102.4,102.4s102.4-45.935,102.4-102.4
			C460.8,225.135,414.865,179.2,358.4,179.2z M358.4,366.933c-47.053,0-85.333-38.281-85.333-85.333s38.281-85.333,85.333-85.333
			s85.333,38.281,85.333,85.333S405.453,366.933,358.4,366.933z"/>
	</g>
</g>
<g>
	<g>
		<path d="M494.933,128h-30.592c-10.249-10.24-48.708-48.7-48.708-48.7c-1.596-1.604-3.772-2.5-6.033-2.5H307.2
			c-2.261,0-4.437,0.896-6.033,2.5l-48.7,48.7H128v-25.6c0-4.719-3.823-8.533-8.533-8.533h-51.2c-4.71,0-8.533,3.814-8.533,8.533
			V128H17.067C7.654,128,0,135.654,0,145.067v273.067c0,9.412,7.654,17.067,17.067,17.067h477.867
			c9.412,0,17.067-7.654,17.067-17.067V145.067C512,135.654,504.346,128,494.933,128z M153.6,230.4c0,4.71-3.823,8.533-8.533,8.533
			h-102.4c-4.71,0-8.533-3.823-8.533-8.533v-59.733c0-4.71,3.823-8.533,8.533-8.533h102.4c4.71,0,8.533,3.823,8.533,8.533V230.4z
			 M358.4,401.067c-65.877,0-119.467-53.589-119.467-119.467S292.523,162.133,358.4,162.133S477.867,215.723,477.867,281.6
			S424.277,401.067,358.4,401.067z"/>
	</g>
</g>
</svg>