<?xml version="1.0" encoding="UTF-8" standalone="no"?>
<!-- Uploaded to: SVG Repo, www.svgrepo.com, Generator: SVG Repo Mixer Tools -->

<svg
   fill="#000000"
   height="800"
   width="800"
   version="1.1"
   id="Capa_1"
   viewBox="0 0 487 487"
   xml:space="preserve"
   xmlns="http://www.w3.org/2000/svg"
   xmlns:svg="http://www.w3.org/2000/svg"><defs
   id="defs2" />
<g
   id="g2"
   style="fill:#cccccc;fill-opacity:1">
	<g
   id="g1"
   style="fill:#cccccc;fill-opacity:1">
		<path
   d="m 308.1,277.95 c 0,35.7 -28.9,64.6 -64.6,64.6 -35.7,0 -64.6,-28.9 -64.6,-64.6 0,-35.7 28.9,-64.6 64.6,-64.6 35.7,0 64.6,28.9 64.6,64.6 z m 132.2,-161.9 c 25.8,0 46.7,20.9 46.7,46.7 v 122.4 103.8 c 0,27.5 -22.3,49.8 -49.8,49.8 H 49.8 C 22.3,438.75 0,416.45 0,388.95 v -103.9 -122.3 0 c 0,-25.8 20.9,-46.7 46.7,-46.7 h 93.4 l 4.4,-18.6 c 6.7,-28.8 32.4,-49.2 62,-49.2 h 74.1 c 29.6,0 55.3,20.4 62,49.2 l 4.3,18.6 z m -342.9,67.4 c 0,-12.9 -10.5,-23.4 -23.4,-23.4 -13,0 -23.5,10.5 -23.5,23.4 0,12.9 10.5,23.4 23.4,23.4 13,0.1 23.5,-10.4 23.5,-23.4 z m 261.3,94.5 c 0,-63.6 -51.6,-115.2 -115.2,-115.2 -63.6,0 -115.2,51.6 -115.2,115.2 0,63.6 51.6,115.2 115.2,115.2 63.6,0 115.2,-51.6 115.2,-115.2 z"
   id="path1"
   style="fill:#cccccc;fill-opacity:1" />
	</g>
</g>
</svg>
